<svg xmlns="http://www.w3.org/2000/svg" viewBox="0 0 1200 630" width="1200" height="630">
  <defs>
    <linearGradient id="bg" x1="0" y1="0" x2="1" y2="1">
      <stop offset="0" stop-color="#0f1416"/>
      <stop offset="1" stop-color="#1a1f21"/>
    </linearGradient>
    <linearGradient id="accent" x1="0" y1="0" x2="1" y2="0">
      <stop offset="0" stop-color="#b6f04a"/>
      <stop offset="1" stop-color="#7fd13a"/>
    </linearGradient>
    <filter id="glow" x="-20%" y="-20%" width="140%" height="140%">
      <feGaussianBlur stdDeviation="6" result="b"/>
      <feMerge><feMergeNode in="b"/><feMergeNode in="SourceGraphic"/></feMerge>
    </filter>
  </defs>
  <rect width="1200" height="630" fill="url(#bg)"/>
  <g stroke="#ffffff" stroke-opacity="0.04" stroke-width="1">
    <path d="M0 158 H1200 M0 316 H1200 M0 474 H1200"/>
    <path d="M300 0 V630 M600 0 V630 M900 0 V630"/>
  </g>
  <g transform="translate(0,420)" filter="url(#glow)">
    <path d="M0 0 L60 -18 L120 14 L180 -32 L240 22 L300 -8 L360 -40 L420 30 L480 -16 L540 44 L600 -28 L660 18 L720 -52 L780 36 L840 -10 L900 26 L960 -34 L1020 8 L1080 -22 L1140 30 L1200 -6"
      fill="none" stroke="url(#accent)" stroke-width="3" stroke-linecap="round" stroke-linejoin="round" opacity="0.85"/>
  </g>
  <g transform="translate(80,80)" stroke="#b6f04a" stroke-width="4" stroke-linecap="square" fill="none">
    <path d="M0 0 L0 56 M0 0 L20 0"/>
    <path d="M76 0 L76 56 M76 0 L56 0"/>
    <path d="M30 12 L40 8 L40 50"/>
    <circle cx="56" cy="50" r="3" fill="#b6f04a" stroke="none"/>
  </g>
  <text x="180" y="124" fill="#f4f6f6" font-family="'Helvetica Neue', Arial, sans-serif" font-weight="700" font-size="40" letter-spacing="-1">Volta</text>
  <g transform="translate(1010,90)">
    <rect x="0" y="0" rx="999" ry="999" width="110" height="36" fill="rgba(182,240,74,0.12)" stroke="#b6f04a" stroke-opacity="0.55" stroke-width="1"/>
    <text x="55" y="24" text-anchor="middle" fill="#b6f04a" font-family="'Helvetica Neue', Arial, sans-serif" font-weight="600" font-size="14" letter-spacing="2">BETA Q3 26</text>
  </g>
  <g transform="translate(80,230)" fill="#f4f6f6" font-family="'Helvetica Neue', Arial, sans-serif">
    <text x="0" y="0" font-size="72" font-weight="700" letter-spacing="-2">Conversational</text>
    <text x="0" y="86" font-size="72" font-weight="700" letter-spacing="-2">
      <tspan fill="#b6f04a">Mixing</tspan> for Pros
    </text>
  </g>
  <text x="80" y="430" fill="#a3aaad" font-family="'Helvetica Neue', Arial, sans-serif" font-size="26" font-weight="400" letter-spacing="-0.3">Ableton · Cubase · Logic Pro · VST3 / AU / AAX</text>
  <g transform="translate(80,540)">
    <text x="0" y="0" fill="#6c7479" font-family="'Helvetica Neue', Arial, sans-serif" font-size="20" font-weight="500" letter-spacing="0.5">volta.blackcoconut.kr</text>
    <text x="1040" y="0" fill="#6c7479" font-family="'Helvetica Neue', Arial, sans-serif" font-size="20" font-weight="500" letter-spacing="0.5" text-anchor="end">by BlackCoconut</text>
  </g>
</svg>
